<svg width="20" height="20" viewBox="0 0 20 20" fill="none" xmlns="http://www.w3.org/2000/svg">
<path d="M17.95 12.5H14.1667C13.7246 12.5 13.3007 12.6756 12.9882 12.9882C12.6756 13.3007 12.5 13.7246 12.5 14.1667V17.95" stroke="#00A53A" stroke-width="1.33" stroke-linecap="round" stroke-linejoin="round"/>
<path d="M5.83301 2.7832V4.16654C5.83301 4.82958 6.0964 5.46546 6.56524 5.9343C7.03408 6.40314 7.66997 6.66654 8.33301 6.66654C8.77504 6.66654 9.19896 6.84213 9.51152 7.15469C9.82408 7.46725 9.99967 7.89118 9.99967 8.3332C9.99967 9.24987 10.7497 9.99987 11.6663 9.99987C12.1084 9.99987 12.5323 9.82427 12.8449 9.51171C13.1574 9.19915 13.333 8.77523 13.333 8.3332C13.333 7.41654 14.083 6.66654 14.9997 6.66654H17.6413" stroke="#00A53A" stroke-width="1.33" stroke-linecap="round" stroke-linejoin="round"/>
<path d="M9.16634 18.291V14.9993C9.16634 14.5573 8.99075 14.1334 8.67819 13.8208C8.36562 13.5083 7.9417 13.3327 7.49967 13.3327C7.05765 13.3327 6.63372 13.1571 6.32116 12.8445C6.0086 12.532 5.83301 12.108 5.83301 11.666V10.8327C5.83301 10.3907 5.65741 9.96673 5.34485 9.65417C5.03229 9.34161 4.60837 9.16602 4.16634 9.16602H1.70801" stroke="#00A53A" stroke-width="1.33" stroke-linecap="round" stroke-linejoin="round"/>
<path d="M9.99935 18.3327C14.6017 18.3327 18.3327 14.6017 18.3327 9.99935C18.3327 5.39698 14.6017 1.66602 9.99935 1.66602C5.39698 1.66602 1.66602 5.39698 1.66602 9.99935C1.66602 14.6017 5.39698 18.3327 9.99935 18.3327Z" stroke="#00A53A" stroke-width="1.33" stroke-linecap="round" stroke-linejoin="round"/>
</svg>
