<svg width="19" height="14" viewBox="0 0 19 14" fill="none" xmlns="http://www.w3.org/2000/svg">
<path fill-rule="evenodd" clip-rule="evenodd" d="M2.03118 7.15189C1.91846 6.96252 1.82821 6.79771 1.75986 6.66667C1.82821 6.53562 1.91846 6.37082 2.03118 6.18144C2.33451 5.67185 2.79536 4.99313 3.42316 4.31704C4.67925 2.96433 6.55679 1.66667 9.16667 1.66667C11.7765 1.66667 13.6541 2.96433 14.9102 4.31704C15.538 4.99313 15.9988 5.67185 16.3022 6.18144C16.4149 6.37082 16.5051 6.53562 16.5735 6.66667C16.5051 6.79771 16.4149 6.96252 16.3022 7.15189C15.9988 7.66149 15.538 8.3402 14.9102 9.01629C13.6541 10.369 11.7765 11.6667 9.16667 11.6667C6.55679 11.6667 4.67925 10.369 3.42316 9.01629C2.79536 8.3402 2.33451 7.66149 2.03118 7.15189ZM18.2657 6.3377C18.2658 6.33806 18.266 6.3384 17.5 6.66667C18.266 6.99493 18.2658 6.99527 18.2657 6.99563L18.2653 6.99647L18.2644 6.99854L18.2619 7.00427L18.2541 7.02201C18.2476 7.03658 18.2386 7.05657 18.227 7.08162C18.2039 7.13172 18.1705 7.20215 18.1265 7.29C18.0388 7.46557 17.9086 7.7115 17.7343 8.00436C17.3866 8.58851 16.8579 9.36813 16.1315 10.1504C14.6793 11.7143 12.3901 13.3333 9.16667 13.3333C5.94321 13.3333 3.65408 11.7143 2.20184 10.1504C1.47547 9.36813 0.946737 8.58851 0.599027 8.00436C0.424702 7.7115 0.294579 7.46557 0.206792 7.29C0.162868 7.20215 0.129447 7.13172 0.106306 7.08162C0.0947331 7.05657 0.0857221 7.03658 0.0792457 7.02201L0.0714251 7.00427L0.0689318 6.99854L0.068038 6.99647L0.0676793 6.99563C0.0675244 6.99527 0.0673791 6.99493 0.833333 6.66667C0.0673791 6.3384 0.0675244 6.33806 0.0676793 6.3377L0.068038 6.33687L0.0689318 6.3348L0.0714251 6.32906L0.0792457 6.31132C0.0857221 6.29676 0.0947331 6.27677 0.106306 6.25171C0.129447 6.20161 0.162868 6.13119 0.206792 6.04334C0.294579 5.86776 0.424702 5.62184 0.599027 5.32897C0.946737 4.74482 1.47547 3.9652 2.20184 3.18296C3.65408 1.619 5.94321 0 9.16667 0C12.3901 0 14.6793 1.619 16.1315 3.18296C16.8579 3.9652 17.3866 4.74482 17.7343 5.32897C17.9086 5.62184 18.0388 5.86776 18.1265 6.04334C18.1705 6.13119 18.2039 6.20161 18.227 6.25171C18.2386 6.27677 18.2476 6.29676 18.2541 6.31132L18.2619 6.32906L18.2644 6.3348L18.2653 6.33687L18.2657 6.3377ZM17.5 6.66667L18.266 6.3384C18.3558 6.54802 18.3558 6.78531 18.266 6.99493L17.5 6.66667ZM0.0673791 6.3384L0.833333 6.66667L0.0673791 6.99493C-0.0224597 6.78531 -0.0224597 6.54802 0.0673791 6.3384ZM7.50016 6.66536C7.50016 5.74489 8.24635 4.9987 9.16683 4.9987C10.0873 4.9987 10.8335 5.74489 10.8335 6.66536C10.8335 7.58584 10.0873 8.33203 9.16683 8.33203C8.24635 8.33203 7.50016 7.58584 7.50016 6.66536ZM9.16683 3.33203C7.32588 3.33203 5.8335 4.82442 5.8335 6.66536C5.8335 8.50631 7.32588 9.9987 9.16683 9.9987C11.0078 9.9987 12.5002 8.50631 12.5002 6.66536C12.5002 4.82442 11.0078 3.33203 9.16683 3.33203Z" fill="#555555"/>
</svg>
