<svg width="18" height="20" viewBox="0 0 18 20" fill="none" xmlns="http://www.w3.org/2000/svg">
<path fill-rule="evenodd" clip-rule="evenodd" d="M8.99995 1.8C4.36613 1.8 1.79995 4.90707 1.79995 7.57894C1.79995 10.7809 3.62636 13.4424 5.56232 15.3559C6.52173 16.3042 7.4839 17.0442 8.20676 17.547C8.52665 17.7695 8.79821 17.9445 8.99995 18.0696C9.20169 17.9445 9.47325 17.7695 9.79314 17.547C10.516 17.0442 11.4782 16.3042 12.4376 15.3559C14.3735 13.4424 16.2 10.7809 16.2 7.57894C16.2 4.90707 13.6338 1.8 8.99995 1.8ZM8.99995 19C8.61487 19.7012 8.61461 19.7011 8.61432 19.7009L8.61156 19.6994L8.60534 19.6959L8.58436 19.6842C8.56664 19.6742 8.54154 19.6599 8.50954 19.6414C8.44556 19.6044 8.35395 19.5504 8.23865 19.4799C8.00815 19.3388 7.68242 19.1313 7.29314 18.8605C6.516 18.32 5.47817 17.5224 4.43758 16.4939C2.37354 14.4538 0.199951 11.4048 0.199951 7.57894C0.199951 3.87935 3.63377 0.199997 8.99995 0.199997C14.3661 0.199997 17.7999 3.87935 17.7999 7.57894C17.7999 11.4048 15.6264 14.4538 13.5623 16.4939C12.5217 17.5224 11.4839 18.32 10.7068 18.8605C10.3175 19.1313 9.99175 19.3388 9.76125 19.4799C9.64596 19.5504 9.55434 19.6044 9.49036 19.6414C9.45836 19.6599 9.43326 19.6742 9.41554 19.6842L9.39457 19.6959L9.38835 19.6994L9.38632 19.7005C9.38603 19.7007 9.38503 19.7012 8.99995 19ZM8.99995 19L9.38503 19.7012L8.99995 19.9127L8.61432 19.7009L8.99995 19Z" fill="#27AE60"/>
<path fill-rule="evenodd" clip-rule="evenodd" d="M8.99995 10.4C10.3254 10.4 11.4 9.32548 11.4 8C11.4 6.67451 10.3254 5.6 8.99995 5.6C7.67447 5.6 6.59995 6.67451 6.59995 8C6.59995 9.32548 7.67447 10.4 8.99995 10.4ZM8.99995 12C11.2091 12 13 10.2091 13 8C13 5.79086 11.2091 4 8.99995 4C6.79081 4 4.99995 5.79086 4.99995 8C4.99995 10.2091 6.79081 12 8.99995 12Z" fill="#27AE60"/>
</svg>
