<svg width="24" height="24" viewBox="0 0 24 24" fill="none" xmlns="http://www.w3.org/2000/svg">
<g clip-path="url(#clip0_165_809)">
<path d="M12.0002 1.66998C12.9552 1.66998 13.8452 2.13698 14.3902 2.91698L14.4952 3.07698L22.6092 16.625C22.8558 17.0521 22.9899 17.5347 22.9991 18.0278C23.0083 18.5209 22.8922 19.0082 22.6617 19.4442C22.4311 19.8801 22.0938 20.2504 21.6811 20.5205C21.2684 20.7905 20.794 20.9513 20.3022 20.988L20.1072 20.996H3.88219C3.38989 20.9904 2.90702 20.8603 2.47866 20.6176C2.05029 20.3749 1.69039 20.0277 1.43255 19.6083C1.17472 19.1889 1.02735 18.711 1.0042 18.2192C0.981052 17.7274 1.08288 17.2378 1.30019 16.796L1.39919 16.611L9.50919 3.07298C9.76885 2.6448 10.1345 2.29075 10.5708 2.045C11.0071 1.79925 11.4994 1.67009 12.0002 1.66998ZM12.0102 15L11.8832 15.007C11.6401 15.0359 11.4161 15.1529 11.2536 15.3359C11.0911 15.519 11.0013 15.7552 11.0013 16C11.0013 16.2447 11.0911 16.481 11.2536 16.664C11.4161 16.847 11.6401 16.9641 11.8832 16.993L12.0002 17L12.1272 16.993C12.3702 16.9641 12.5942 16.847 12.7568 16.664C12.9193 16.481 13.0091 16.2447 13.0091 16C13.0091 15.7552 12.9193 15.519 12.7568 15.3359C12.5942 15.1529 12.3702 15.0359 12.1272 15.007L12.0102 15ZM12.0002 7.99998C11.7553 8.00002 11.5188 8.08994 11.3358 8.2527C11.1528 8.41546 11.0358 8.63973 11.0072 8.88298L11.0002 8.99998V13L11.0072 13.117C11.0361 13.36 11.1531 13.584 11.3362 13.7466C11.5192 13.9091 11.7554 13.9989 12.0002 13.9989C12.2449 13.9989 12.4812 13.9091 12.6642 13.7466C12.8472 13.584 12.9643 13.36 12.9932 13.117L13.0002 13V8.99998L12.9932 8.88298C12.9645 8.63973 12.8476 8.41546 12.6646 8.2527C12.4815 8.08994 12.2451 8.00002 12.0002 7.99998Z" fill="black"/>
</g>
<defs>
<clipPath id="clip0_165_809">
<rect width="24" height="24" fill="white"/>
</clipPath>
</defs>
</svg>
